<svg xmlns="http://www.w3.org/2000/svg" width="12.78" height="12.78" viewBox="0 0 12.78 12.78"><path d="M4.52-14.52a6.329,6.329,0,0,0-2.03-1.37A6.437,6.437,0,0,0,0-16.39a6.437,6.437,0,0,0-2.49.5,6.329,6.329,0,0,0-2.03,1.37,6.329,6.329,0,0,0-1.37,2.03A6.437,6.437,0,0,0-6.39-10a6.437,6.437,0,0,0,.5,2.49A6.329,6.329,0,0,0-4.52-5.48,6.329,6.329,0,0,0-2.49-4.11,6.437,6.437,0,0,0,0-3.61a6.437,6.437,0,0,0,2.49-.5A6.329,6.329,0,0,0,4.52-5.48,6.329,6.329,0,0,0,5.89-7.51,6.437,6.437,0,0,0,6.39-10a6.437,6.437,0,0,0-.5-2.49A6.329,6.329,0,0,0,4.52-14.52Zm-8.49.55a5.762,5.762,0,0,1,1.78-1.2,5.4,5.4,0,0,1,.94-.3,8.265,8.265,0,0,0-1.42,1.86c-.06.11-.12.23-.17.34a8.437,8.437,0,0,1-1.33-.49Zm6.16-1.2a5.762,5.762,0,0,1,1.78,1.2l.2.21a8.437,8.437,0,0,1-1.33.49c-.05-.11-.11-.23-.17-.34a8.265,8.265,0,0,0-1.42-1.86A5.4,5.4,0,0,1,2.19-15.17Zm-2.58,2.3a11.679,11.679,0,0,1-1.68-.2l.09-.17A7.1,7.1,0,0,1-.39-15.2ZM.39-15.2a7.1,7.1,0,0,1,1.59,1.96l.09.17a11.679,11.679,0,0,1-1.68.2Zm-5.56,3.01a5.7,5.7,0,0,1,.51-.94,10.519,10.519,0,0,0,1.51.59c-.07.21-.14.43-.2.65a7.554,7.554,0,0,0-.23,1.5H-5.6A5.918,5.918,0,0,1-5.17-12.19Zm8.75,1.8a7.554,7.554,0,0,0-.23-1.5c-.06-.22-.13-.44-.2-.65a10.519,10.519,0,0,0,1.51-.59,5.7,5.7,0,0,1,.51.94,5.918,5.918,0,0,1,.43,1.8Zm-3.97,0H-2.8a7.3,7.3,0,0,1,.21-1.31,5.382,5.382,0,0,1,.2-.65,11.058,11.058,0,0,0,2,.26Zm.78-1.7a11.058,11.058,0,0,0,2-.26,5.382,5.382,0,0,1,.2.65,7.3,7.3,0,0,1,.21,1.31H.39ZM-4.66-6.87a5.7,5.7,0,0,1-.51-.94,5.918,5.918,0,0,1-.43-1.8h2.02a7.554,7.554,0,0,0,.23,1.5c.06.22.13.44.2.65A10.52,10.52,0,0,0-4.66-6.87ZM-.39-7.91a11.058,11.058,0,0,0-2,.26,5.382,5.382,0,0,1-.2-.65A7.3,7.3,0,0,1-2.8-9.61H-.39Zm.78-1.7H2.8A7.3,7.3,0,0,1,2.59-8.3a5.382,5.382,0,0,1-.2.65,11.058,11.058,0,0,0-2-.26Zm4.78,1.8a5.7,5.7,0,0,1-.51.94,10.52,10.52,0,0,0-1.51-.59c.07-.21.14-.43.2-.65a7.554,7.554,0,0,0,.23-1.5H5.6A5.918,5.918,0,0,1,5.17-7.81ZM-.39-4.8A7.1,7.1,0,0,1-1.98-6.76l-.09-.17a11.679,11.679,0,0,1,1.68-.2Zm.78,0V-7.13a11.679,11.679,0,0,1,1.68.2l-.09.17A7.1,7.1,0,0,1,.39-4.8Zm-2.58-.03a5.762,5.762,0,0,1-1.78-1.2l-.2-.21a8.437,8.437,0,0,1,1.33-.49c.05.11.11.23.17.34A8.265,8.265,0,0,0-1.25-4.53,5.4,5.4,0,0,1-2.19-4.83Zm6.16-1.2a5.762,5.762,0,0,1-1.78,1.2,5.4,5.4,0,0,1-.94.3A8.265,8.265,0,0,0,2.67-6.39c.06-.11.12-.23.17-.34a8.437,8.437,0,0,1,1.33.49Z" transform="translate(6.39 16.39)" fill="#fff"/></svg>